cl__1 = 0.1;
Point(1) = {0, 0, 0, 0.1};
Point(2) = {0.7071067811865476, 4.329780281177466e-17, 0.7071067811865475, 0.1};
Point(3) = {0.6363961030678928, 4.762758309295213e-17, 0.7778174593052022, 0.1};
Point(4) = {1.387778780781446e-17, 8.659560562354932e-18, 0.1414213562373095, 0.1};
Point(5) = {-0.6363961030678927, 4.762758309295213e-17, 0.7778174593052023, 0.1};
Point(6) = {-0.7071067811865475, 4.329780281177467e-17, 0.7071067811865476, 0.1};
Point(7) = {0, -0.1, 6.123233995736766e-18, 0.1};
Point(8) = {0.7071067811865476, -0.09999999999999996, 0.7071067811865475, 0.1};
Point(9) = {0.6363961030678928, -0.09999999999999996, 0.7778174593052022, 0.1};
Point(10) = {1.387778780781446e-17, -0.09999999999999999, 0.1414213562373095, 0.1};
Point(11) = {-0.6363961030678927, -0.09999999999999996, 0.7778174593052023, 0.1};
Point(12) = {-0.7071067811865475, -0.09999999999999996, 0.7071067811865476, 0.1};
Line(1) = {8, 7};
Line(2) = {7, 1};
Line(3) = {1, 2};
Line(4) = {2, 3};
Line(5) = {3, 9};
Line(6) = {9, 8};
Line(7) = {8, 2};
Line(8) = {12, 6};
Line(9) = {6, 5};
Line(10) = {5, 11};
Line(11) = {11, 12};
Line(12) = {12, 7};
Line(13) = {6, 1};
Line(14) = {5, 4};
Line(15) = {11, 10};
Line(16) = {10, 9};
Line(17) = {3, 4};
Line(18) = {4, 10};
Line Loop(20) = {5, 6, 7, 4};
Plane Surface(20) = {20};
Line Loop(22) = {16, -5, 17, 18};
Plane Surface(22) = {22};
Line Loop(24) = {15, -18, -14, 10};
Plane Surface(24) = {24};
Line Loop(26) = {10, 11, 8, 9};
Plane Surface(26) = {26};
Line Loop(28) = {12, 2, -13, -8};
Plane Surface(28) = {28};
Line Loop(30) = {9, 14, -17, -4, -3, -13};
Plane Surface(30) = {30};
Line Loop(32) = {6, 1, -12, -11, 15, 16};
Plane Surface(32) = {32};
Line Loop(34) = {7, -3, -2, -1};
Plane Surface(34) = {34};
Surface Loop(36) = {28, 32, 20, 22, 30, 26, 24, 34};
Volume(36) = {36};
